<svg enable-background="new 0 0 64 64" viewBox="0 0 64 64" xmlns="http://www.w3.org/2000/svg"><circle cx="32" cy="32" fill="#c75c5c" r="32"/><g fill="#231f20" opacity=".2"><path d="m32 16.8-14.4 32.4 14.4-7.2 14.4 7.2z"/><path d="m46.4 50.5c-.2 0-.4 0-.6-.1l-13.8-6.9-13.8 6.9c-.5.3-1.1.2-1.5-.2s-.5-1-.3-1.5l14.4-32.3c.2-.5.7-.8 1.2-.8s1 .3 1.2.8l14.4 32.3c.2.5.1 1.1-.3 1.5-.3.2-.6.3-.9.3zm-14.4-9.9c.2 0 .4 0 .6.1l11 5.5-11.6-26-11.6 26.1 11-5.5c.2-.1.4-.2.6-.2z"/></g><path d="m32 15-14.1 31.7 14.1-7.1 14.1 7.1z" style="fill:#fff;stroke:#fff;stroke-width:3;stroke-linecap:round;stroke-linejoin:round;stroke-miterlimit:10"/></svg>