<svg viewBox="0 0 177.79 258.2" xmlns="http://www.w3.org/2000/svg"><rect fill="#ffc4a4" height="225.11" opacity=".5" rx="85.89" width="171.78" x="3" y="33.09"/><rect fill="#ffc4a4" height="225.11" rx="85.89" width="171.78" x="3" y="2.82"/><path d="m94.17 226.08c-1.71.11-3.43.16-5.16.16a85.9 85.9 0 0 1 -85.9-85.9v-53.34a85.89 85.89 0 0 1 85.89-85.87q2.59 0 5.16.15a85.89 85.89 0 0 0 -80.7 85.72v53.32a85.89 85.89 0 0 0 80.71 85.76z" fill="#fff"/><path d="m82.52 227.78q2.57.15 5.16.15a85.9 85.9 0 0 0 85.9-85.9v-56.6c0-47.44-38.46-82.61-85.9-82.61q-2.59 0-5.16.15a85.91 85.91 0 0 1 80.72 85.74v53.29a85.91 85.91 0 0 1 -80.72 85.78z" fill="#ff9976"/><path d="m165.7 57.44c9.05 23.13 6.08 49.92 6.08 74.31 0 10.56 0 20.91-2.67 31.24a83.62 83.62 0 0 1 -26.89 42.52c-26.55 22.47-65.67 25.58-95.54 7.88-26.68-15.81-40.68-44.11-40.68-74.59v-36.8c0-15 .31-29.31 5.74-43.66 1.37-3.62-4.42-5.18-5.78-1.6-5.19 13.64-5.96 27.46-5.96 41.85v36.56c0 12.23.78 24.17 4.83 35.85a89 89 0 0 0 128.73 47.9c28.13-16.38 44.19-46.52 44.22-78.74q0-19.09 0-38.21c0-15.85-.39-31-6.29-46.11-1.4-3.56-7.2-2-5.79 1.6z" fill="#403126"/><path d="m126 14.57a85.51 85.51 0 0 1 33.47 30.65c2.05 3.26 7.24.25 5.18-3a91.49 91.49 0 0 0 -35.65-32.83c-3.42-1.77-6.46 3.4-3 5.18z" fill="#403126"/><path d="m17 47.39a84 84 0 0 1 97.15-37.65c3.69 1.13 5.28-4.66 1.59-5.79a90 90 0 0 0 -103.9 40.41c-2 3.33 3.22 6.36 5.18 3z" fill="#403126"/><path d="m145.8 163.48s23-9.83 28.47-52.53" fill="none" stroke="#403126" stroke-miterlimit="10" stroke-width="4"/><path d="m29.36 162.15s-21.21-9.06-26.25-48.42" fill="none" stroke="#403126" stroke-miterlimit="10" stroke-width="4"/><path d="m88.89 144.47v-23.94" fill="none" stroke="#403126" stroke-linecap="round" stroke-linejoin="round" stroke-width="4"/><rect fill="#fff" height="37.06" rx="1.66" width="3.32" x="19.19" y="94.71"/><circle cx="20.85" cy="86.77" fill="#fff" r="2.44"/><path d="m154.49 174.16a65.54 65.54 0 1 1 -131.07 0c0-36.16 29.35-34.16 65.58-34.16s65.49-2 65.49 34.16z" fill="#fff"/><path d="m151.49 174.16c-.27 26-16.53 50-41.23 58.82a63.18 63.18 0 0 1 -69.49-18.98 62.34 62.34 0 0 1 -14.16-35c-.74-10 .28-21.81 8.79-28.47 7.77-6.09 18.89-6.9 28.36-7.34 12.27-.57 24.62-.26 36.9-.25 11.73 0 24.67-.41 35.73 4.12 11.45 4.69 15 15.43 15.1 27 0 3.86 6 3.87 6 0-.11-11.11-2.9-22.35-12.4-29.1-9.13-6.49-21.32-7.44-32.16-7.87-14.25-.56-28.64-.4-42.9-.14-11.36.21-23.87.6-34.13 6.1-23.11 12.49-16.9 47.55-5.9 66.08a69.28 69.28 0 0 0 72.13 32.29c32-6.12 55-35 55.36-67.26.05-3.86-5.95-3.86-6 0z" fill="#403126"/><g fill="none" stroke="#403126"><path d="m23.42 173.73h131.07" stroke-linecap="round" stroke-linejoin="round" stroke-width="3"/><path d="m28.42 156.63h121.07" stroke-linecap="round" stroke-linejoin="round" stroke-width="3"/><path d="m26.33 190.97 123.27-.27" stroke-linecap="round" stroke-linejoin="round" stroke-width="3"/><path d="m33.93 208.06 109.54-.27" stroke-linecap="round" stroke-linejoin="round" stroke-width="3"/><path d="m46.93 225.16 82.54-.27" stroke-linecap="round" stroke-linejoin="round" stroke-width="3"/></g></svg>