<svg enable-background="new 0 0 128 128" viewBox="0 0 128 128" xmlns="http://www.w3.org/2000/svg" xmlns:xlink="http://www.w3.org/1999/xlink"><linearGradient id="a"><stop offset="0" stop-color="#0288d1"/><stop offset=".9989" stop-color="#42a5f5"/></linearGradient><linearGradient id="b" gradientUnits="userSpaceOnUse" x1="64.317" x2="64.317" xlink:href="#a" y1="97.356" y2="28.978"/><linearGradient id="c" gradientUnits="userSpaceOnUse" x1="24.322" x2="104.08" xlink:href="#a" y1="93.883" y2="93.883"/><path d="m94.39 123.95h-11.73c-1.1 0-2-.9-2-2v-3.29c0-1.1.9-2 2-2h11.73c1.1 0 2 .9 2 2v3.29c0 1.1-.89 2-2 2z" fill="#546e7a"/><path d="m94.39 118.66v3.29h-11.73v-3.29zm0-2h-11.73c-1.1 0-2 .9-2 2v3.29c0 1.1.9 2 2 2h11.73c1.1 0 2-.9 2-2v-3.29c0-1.11-.89-2-2-2z" fill="#424242" opacity=".2"/><path d="m45.7 123.95h-12c-1.1 0-2-.9-2-2v-3.29c0-1.1.9-2 2-2h12c1.1 0 2 .9 2 2v3.29c0 1.1-.89 2-2 2z" fill="#546e7a"/><path d="m85.67 93h9.65v31h-9.65z" fill="#78909c"/><path d="m93.32 97.18v19.42h-5.65v-19.42zm2-2h-9.65v23.42h9.65z" fill="#424242" opacity=".2"/><path d="m92.02 93.65h-55.59l-5.24-36.95c-1.52-10.73-1.28-21.67.7-32.32l.22-1.2c1.63-8.75 8.81-15.04 17.14-15.04h30.05c8.26 0 15.4 6.19 17.11 14.85l.12.63c2.2 11.14 2.47 22.62.81 33.87z" fill="url(#b)"/><path d="m77.97 87.71-28.38.39 1.82-13.36c.51-4.1.39-8.25-.37-12.31l-8-42.95c-.7-6.1 4.3-11.42 10.72-11.42h20.88c6.4 0 11.4 5.3 10.72 11.39l-8.04 43.18c-.73 3.93-.87 7.95-.41 11.93z" fill="#0277bd"/><path d="m92.03 26.67h-55.56c-2.21 0-4-1.79-4-4v-2.56c0-8.84 7.16-16 16-16h31.57c8.84 0 16 7.16 16 16v2.56c-.01 2.21-1.8 4-4.01 4z" fill="#0277bd"/><path d="m75.08 21.16h-22.16c-2.21 0-4-1.79-4-4v-13.16h30.16v13.16c0 2.21-1.79 4-4 4z" fill="#eee"/><path d="m78.85 7c7.84 0 14.14 6.43 14.14 14.33 0 .55.11 1.07.37 1.51.02.11.02.22.04.33l-.03.24c-.02.26-.01.53.04.78 2.12 10.75 2.39 22.15.78 33.03l-4.95 33.78h-50.4l-4.92-34.54c-1.49-10.48-1.27-21.38.63-31.54.02-.09.03-.17.04-.25l.18-1.07c.1-.61.23-1.23.23-1.91v-.41c0-7.74 6.53-14.28 14.43-14.28h29.57m0-3h-29.57c-9.47 0-17.43 7.8-17.43 17.27v.41c0 .49-.11.99-.21 1.5l-.15 1.2c-1.99 10.65-2.19 21.76-.67 32.5l5.27 37.12h55.59l5.33-36.33c1.66-11.25 1.39-22.92-.81-34.07l.04-.62c-.11-.55-.22-1.08-.22-1.61l-.11-.04c.01-9.47-8.06-17.33-17.06-17.33z" fill="#424242" opacity=".2"/><path d="m33.32 93h9.65v31h-9.65z" fill="#78909c"/><path d="m40.97 97.18v19.42h-5.65v-19.42zm2-2h-9.65v23.42h9.65z" fill="#424242" opacity=".2"/><path d="m30.79 97.8h-2.02c-2.5 0-4.53-2.03-4.53-4.53v-20.18c0-2.5 2.03-4.53 4.53-4.53h2.02c2.5 0 4.53 2.03 4.53 4.53v20.18c0 2.5-2.03 4.53-4.53 4.53z" fill="#78909c"/><path d="m99.24 97.8h-2.02c-2.5 0-4.53-2.03-4.53-4.53v-20.18c0-2.5 2.03-4.53 4.53-4.53h2.02c2.5 0 4.53 2.03 4.53 4.53v20.18c0 2.5-2.03 4.53-4.53 4.53z" fill="#78909c"/><path d="m30.79 70.56c1.39 0 2.53 1.13 2.53 2.53v20.18c0 1.39-1.13 2.53-2.53 2.53h-2.02c-1.39 0-2.53-1.13-2.53-2.53v-20.18c0-1.39 1.13-2.53 2.53-2.53zm0-2h-2.02c-2.5 0-4.53 2.03-4.53 4.53v20.18c0 2.5 2.03 4.53 4.53 4.53h2.02c2.5 0 4.53-2.03 4.53-4.53v-20.18c0-2.5-2.03-4.53-4.53-4.53z" fill="#424242" opacity=".2"/><path d="m99.24 70.56c1.39 0 2.53 1.13 2.53 2.53v20.18c0 1.39-1.13 2.53-2.53 2.53h-2.02c-1.39 0-2.53-1.13-2.53-2.53v-20.18c0-1.39 1.13-2.53 2.53-2.53zm0-2h-2.02c-2.5 0-4.53 2.03-4.53 4.53v20.18c0 2.5 2.03 4.53 4.53 4.53h2.02c2.5 0 4.53-2.03 4.53-4.53v-20.18c0-2.5-2.03-4.53-4.53-4.53z" fill="#424242" opacity=".2"/><path d="m100.08 102.16h-71.76c-2.21 0-4-1.79-4-4v-8.56c0-2.21 1.79-4 4-4h71.76c2.21 0 4 1.79 4 4v8.56c0 2.21-1.79 4-4 4z" fill="url(#c)"/><path d="m34.79 75.27h-10.03c-1.1 0-2-.9-2-2v-9.42c0-1.1.9-2 2-2h10.04c1.1 0 2 .9 2 2v9.42c-.01 1.1-.9 2-2.01 2z" fill="#546e7a"/><path d="m103.24 75.27h-10.03c-1.1 0-2-.9-2-2v-9.42c0-1.1.9-2 2-2h10.04c1.1 0 2 .9 2 2v9.42c-.01 1.1-.9 2-2.01 2z" fill="#546e7a"/><g fill="#424242"><path d="m100.08 88.6c.55 0 1 .45 1 1v8.56c0 .55-.45 1-1 1h-71.76c-.55 0-1-.45-1-1v-8.56c0-.55.45-1 1-1zm0-3h-71.76c-2.21 0-4 1.79-4 4v8.56c0 2.21 1.79 4 4 4h71.76c2.21 0 4-1.79 4-4v-8.56c0-2.21-1.79-4-4-4z" opacity=".2"/><path d="m34.79 63.85v9.42h-10.03v-9.42zm0-2h-10.03c-1.1 0-2 .9-2 2v9.42c0 1.1.9 2 2 2h10.04c1.1 0 2-.9 2-2v-9.42c-.01-1.11-.9-2-2.01-2z" opacity=".2"/><path d="m103.24 63.85v9.42h-10.03v-9.42zm0-2h-10.03c-1.1 0-2 .9-2 2v9.42c0 1.1.9 2 2 2h10.04c1.1 0 2-.9 2-2v-9.42c-.01-1.11-.9-2-2.01-2z" opacity=".2"/><path d="m45.7 118.66v3.29h-12v-3.29zm0-2h-12c-1.1 0-2 .9-2 2v3.29c0 1.1.9 2 2 2h12c1.1 0 2-.9 2-2v-3.29c0-1.11-.89-2-2-2z" opacity=".2"/></g></svg>